<svg width="28" height="27" viewBox="0 0 28 27" fill="none" xmlns="http://www.w3.org/2000/svg">
<path d="M14 7.01172C17.6914 7.01172 20.7383 10.0586 20.7383 13.75C20.7383 17.5 17.6914 20.4883 14 20.4883C10.25 20.4883 7.26172 17.5 7.26172 13.75C7.26172 10.0586 10.25 7.01172 14 7.01172ZM14 18.1445C16.4023 18.1445 18.3359 16.2109 18.3359 13.75C18.3359 11.3477 16.4023 9.41406 14 9.41406C11.5391 9.41406 9.60547 11.3477 9.60547 13.75C9.60547 16.2109 11.5977 18.1445 14 18.1445ZM22.5547 6.77734C22.5547 7.65625 21.8516 8.35938 20.9727 8.35938C20.0938 8.35938 19.3906 7.65625 19.3906 6.77734C19.3906 5.89844 20.0938 5.19531 20.9727 5.19531C21.8516 5.19531 22.5547 5.89844 22.5547 6.77734ZM27.0078 8.35938C27.125 10.5273 27.125 17.0312 27.0078 19.1992C26.8906 21.3086 26.4219 23.125 24.8984 24.707C23.375 26.2305 21.5 26.6992 19.3906 26.8164C17.2227 26.9336 10.7188 26.9336 8.55078 26.8164C6.44141 26.6992 4.625 26.2305 3.04297 24.707C1.51953 23.125 1.05078 21.3086 0.933594 19.1992C0.816406 17.0312 0.816406 10.5273 0.933594 8.35938C1.05078 6.25 1.51953 4.375 3.04297 2.85156C4.625 1.32812 6.44141 0.859375 8.55078 0.742188C10.7188 0.625 17.2227 0.625 19.3906 0.742188C21.5 0.859375 23.375 1.32812 24.8984 2.85156C26.4219 4.375 26.8906 6.25 27.0078 8.35938ZM24.1953 21.4844C24.8984 19.7852 24.7227 15.6836 24.7227 13.75C24.7227 11.875 24.8984 7.77344 24.1953 6.01562C23.7266 4.90234 22.8477 3.96484 21.7344 3.55469C19.9766 2.85156 15.875 3.02734 14 3.02734C12.0664 3.02734 7.96484 2.85156 6.26562 3.55469C5.09375 4.02344 4.21484 4.90234 3.74609 6.01562C3.04297 7.77344 3.21875 11.875 3.21875 13.75C3.21875 15.6836 3.04297 19.7852 3.74609 21.4844C4.21484 22.6562 5.09375 23.5352 6.26562 24.0039C7.96484 24.707 12.0664 24.5312 14 24.5312C15.875 24.5312 19.9766 24.707 21.7344 24.0039C22.8477 23.5352 23.7852 22.6562 24.1953 21.4844Z" fill="white"/>
</svg>
