<svg width="14" height="14" viewBox="0 0 14 14" fill="none" xmlns="http://www.w3.org/2000/svg">
<g clip-path="url(#clip0_30_1008)">
<path fill-rule="evenodd" clip-rule="evenodd" d="M2.71108 1.37225C3.46413 0.619207 4.70955 0.707718 5.34852 1.55969L6.40918 2.9739C6.93171 3.67061 6.86243 4.64552 6.24662 5.26133L5.46462 6.04333C5.5404 6.24059 5.78989 6.67347 6.54962 7.43321C7.30935 8.19294 7.74224 8.44242 7.9395 8.5182L8.72149 7.73621C9.3373 7.1204 10.3122 7.05111 11.0089 7.57365L12.4231 8.63431C13.2751 9.27328 13.3636 10.5187 12.6106 11.2717C12.3658 11.5166 12.3243 11.558 11.9158 11.9666C11.4994 12.383 10.6152 12.7721 9.72011 12.8111C8.31934 12.872 6.41664 12.25 4.07475 9.90808C1.73285 7.56619 1.11087 5.66349 1.17177 4.26272C1.20565 3.4835 1.45339 2.62767 2.01953 2.07032C2.42483 1.6585 2.47754 1.60579 2.71108 1.37225ZM2.33734 4.31339C2.29512 5.28438 2.70433 6.88775 4.89971 9.08312C7.09508 11.2785 8.69845 11.6877 9.66944 11.6455C10.5759 11.6061 11.0621 11.1681 11.0908 11.1416L11.7856 10.4468C12.0366 10.1958 12.0071 9.78063 11.7231 9.56764L10.3089 8.50698C10.0767 8.3328 9.75172 8.3559 9.54645 8.56117C9.23717 8.87044 9.02606 9.08468 8.6128 9.49638C7.75435 10.3516 6.28489 8.81839 5.72466 8.25816C5.20982 7.74333 3.64086 6.22721 4.48561 5.37243C4.48728 5.37076 4.71481 5.14323 5.42166 4.43638C5.62693 4.23111 5.65002 3.90614 5.47585 3.6739L4.41519 2.25969C4.2022 1.9757 3.78705 1.94619 3.53604 2.19721C3.30501 2.42824 3.04355 2.6897 2.84193 2.89272C2.42696 3.31055 2.35954 3.80263 2.33734 4.31339Z" fill="#FCFCFD"/>
</g>
<defs>
<clipPath id="clip0_30_1008">
<rect width="14" height="14" fill="white"/>
</clipPath>
</defs>
</svg>
