<svg width="14" height="14" viewBox="0 0 14 14" fill="none" xmlns="http://www.w3.org/2000/svg">
<path fill-rule="evenodd" clip-rule="evenodd" d="M8.93708 9.8799C8.03395 10.5819 6.89912 11 5.66665 11C2.72113 11 0.333313 8.61218 0.333313 5.66667C0.333313 2.72115 2.72113 0.333332 5.66665 0.333332C8.61217 0.333332 11 2.72115 11 5.66667C11 6.89914 10.5819 8.03397 9.87988 8.93709L13.4714 12.5286C13.7317 12.7889 13.7317 13.2111 13.4714 13.4714C13.211 13.7318 12.7889 13.7318 12.5286 13.4714L8.93708 9.8799ZM9.66665 5.66667C9.66665 7.8758 7.87579 9.66667 5.66665 9.66667C3.45751 9.66667 1.66665 7.8758 1.66665 5.66667C1.66665 3.45753 3.45751 1.66667 5.66665 1.66667C7.87579 1.66667 9.66665 3.45753 9.66665 5.66667Z" fill="#FCFCFD"/>
</svg>
