<svg width="851" height="494" viewBox="0 0 851 494" fill="none" xmlns="http://www.w3.org/2000/svg">
<g opacity="0.1">
<path d="M570.414 108.334L570.166 107.342L572.026 108.21L572.956 107.279L574.259 105.977L576.182 104.055L577.361 105.481H577.981L579.531 103.931L580.958 102.256L583.686 101.016L585.671 102.505L584.555 105.606V107.342L583.253 108.644L581.205 109.575L578.973 110.444H576.741L575.066 112.118L572.399 111.187L571.034 109.203L570.414 108.334Z" fill="#23262F"/>
<path d="M565.824 110.94H561.854L560.552 112.242L558.505 113.668L557.016 112.18L553.419 113.296L553.668 115.529L554.598 116.46L555.962 117.824L556.893 118.754L555.528 119.871L553.668 118.259L552.675 119.25L551.31 117.886L548.209 118.506L546.845 117.763L546.225 119.375L547.217 120.366L545.356 121.36V123.716L546.846 125.205L546.472 126.942H547.837L549.574 128.679L549.077 130.663L551.31 131.78L554.288 131.903L555.528 133.144H557.761L560.366 132.4V130.415L558.753 128.926L559.622 128.058L560.924 129.36L563.219 125.205L565.39 123.034L566.321 123.964L568.305 121.98L568.925 120.119L566.692 119.375L565.204 120.863L563.344 119.499L561.11 118.134L558.877 116.522L559.622 114.909L560.8 113.731L561.73 116.893L563.157 118.32L565.575 118.754L567.065 118.134H568.305L569.545 116.894L568.925 114.288H566.941L567.437 112.056V110.444L565.824 110.94Z" fill="#23262F"/>
<path d="M567.933 132.772L566.816 133.764L567.685 136.245L569.112 137.672L570.29 135.377V133.517L569.422 132.648L567.933 132.772Z" fill="#23262F"/>
<path d="M573.019 135.004L571.592 136.431L572.399 138.354L573.764 139.719L572.894 141.703L573.64 142.448L574.756 140.091L577.608 139.47L580.09 138.478L583.439 136.493L581.703 133.268H579.345L575.996 132.151L574.445 133.578L573.019 135.004Z" fill="#23262F"/>
<path d="M545.108 129.67L543.991 128.554L542.007 128.43L543.31 129.733L544.115 132.647H545.728V131.035L545.108 129.67Z" fill="#23262F"/>
<path d="M483.083 177.925L480.789 180.22V181.77H482.71L483.331 183.258L484.944 182.515L486.805 180.654V177.677H484.448L483.083 177.925Z" fill="#23262F"/>
<path d="M563.957 90.5952L563.213 91.9599L564.02 92.7661L564.95 91.9599L563.957 90.5952Z" fill="#23262F"/>
<path d="M557.01 144.804L554.653 144.308L553.909 144.928L555.274 145.548L557.01 146.913L557.754 145.921L557.01 144.804Z" fill="#23262F"/>
<path d="M457.027 146.914L456.53 147.658L457.647 148.402L458.143 147.534L457.027 146.914Z" fill="#23262F"/>
<path d="M451.693 135.874L450.452 136.618L452.189 137.486L453.429 138.354L454.794 137.982L454.422 136.37L453.057 136.741L451.693 135.874Z" fill="#23262F"/>
<path d="M439.536 129.795V128.059L439.66 124.957L438.792 123.221L437.551 123.344L435.815 125.453L435.939 127.314L435.194 128.555L435.691 131.904L434.202 133.393L434.326 136.741L433.582 139.595L432.961 142.448L434.078 143.068L436.435 141.207L437.8 140.339L440.901 138.727L443.382 138.479L446.484 136.121L447.971 133.268L446.979 130.787L445.863 128.926L444.374 129.547L442.886 126.942L441.769 125.825L440.404 127.438L439.536 129.795Z" fill="#23262F"/>
<path d="M428.372 116.522L427.255 117.886L426.263 119.747L425.394 119.375L426.014 117.018V114.537L423.286 115.405C423.286 115.405 421.673 115.778 421.301 115.902C420.929 116.025 419.068 116.646 419.068 116.646L418.199 118.507L417.703 120.12L416.587 121.484L416.959 123.097L414.851 124.709L415.843 125.578L417.331 125.081L418.572 126.818L418.695 128.43L419.812 129.795L422.665 130.043L423.037 131.655L425.022 130.415L426.014 132.027L428.743 133.02L431.349 131.779L432.59 130.042L431.597 128.057L429.984 125.824L431.225 124.955L431.721 122.847L431.1 120.489L431.349 118.132L428.372 116.522Z" fill="#23262F"/>
<path d="M426.139 154.481L424.898 155.969L423.286 156.341L424.774 157.458L426.263 155.969L426.139 154.481Z" fill="#23262F"/>
<path d="M405.423 153.985L404.803 154.977L405.671 155.721L406.788 154.108L405.423 153.985Z" fill="#23262F"/>
<path d="M392.646 187.974L391.157 188.718C391.157 188.718 391.777 190.579 391.777 190.331C391.777 190.082 392.894 189.834 392.894 189.834L392.646 187.974Z" fill="#23262F"/>
<path d="M381.978 176.81L380.614 177.925L381.358 179.414L382.598 179.166L381.978 176.81Z" fill="#23262F"/>
<path d="M381.481 193.06L381.234 194.424H383.342L384.459 195.54L384.583 193.679L383.342 193.432L381.481 193.06Z" fill="#23262F"/>
<path d="M374.287 119.499L373.542 120.243L374.411 120.74L375.776 121.732L376.148 120.491L374.287 119.499Z" fill="#23262F"/>
<path d="M366.72 205.96L365.852 207.076L366.348 208.565L367.217 209.682L368.457 208.317L368.953 206.705L367.837 205.588L366.72 205.96Z" fill="#23262F"/>
<path d="M360.394 210.178L359.029 211.543L357.541 212.783L358.905 213.775L360.021 212.783H361.759L363.371 211.294L361.882 209.806L360.394 210.178Z" fill="#23262F"/>
<path d="M355.928 196.409L354.812 197.401L355.556 198.517L357.044 197.525L358.905 198.021L358.409 196.905L355.928 196.409Z" fill="#23262F"/>
<path d="M350.222 201.371L349.602 202.983L350.594 203.851L351.71 202.487L350.222 201.371Z" fill="#23262F"/>
<path d="M336.95 193.308L335.585 194.3L336.082 195.417L335.089 196.781L335.337 197.65L337.57 198.27L339.679 197.277L340.92 197.402V196.161L338.935 195.665L339.927 194.549L338.81 192.936L337.446 193.432L336.95 193.308Z" fill="#23262F"/>
<path d="M283.112 212.907L281.127 213.899L279.639 214.395L280.011 217.621L280.259 219.358L281.624 219.73L282.12 222.334L284.725 222.583L285.593 220.474L284.352 218.366L284.477 216.009L283.112 212.907Z" fill="#23262F"/>
<path d="M239.199 202.115L236.471 202.859L234.858 204.969L233.617 206.581L234.485 208.937L236.471 209.682L238.331 210.426L240.068 209.186L242.176 209.558L243.293 206.953L241.556 204.72L241.432 202.859L239.199 202.115Z" fill="#23262F"/>
<path d="M158.816 203.852L158.32 204.595L159.188 205.712L160.305 204.595L158.816 203.852Z" fill="#23262F"/>
<path d="M274.428 205.589H273.063L271.575 203.355L270.707 203.852L268.102 201.371L266.117 199.262L266.861 197.029L268.846 196.409L269.59 195.169L268.225 194.052L268.35 191.074L267.481 190.827L266.613 188.594L264.753 188.47L263.264 186.361L263.76 183.632L265.744 180.903L268.102 181.151L268.846 182.019L269.714 182.392L270.086 180.778L272.939 179.911L275.173 177.554L273.684 175.941L275.669 174.7L277.901 175.569L278.522 173.708V171.847H281.375L282.739 173.212L284.166 171.785L284.476 170.483L287.577 169.862L286.523 168.808L283.856 167.877V166.886L286.957 166.017L290.182 165.149L291.795 163.536H293.903V162.048L296.881 161.923L295.269 160.311L297.873 160.187L298.866 161.179L298.741 158.698L299.982 157.458L298.617 155.845L299.486 154.48L300.974 155.969H302.835V154.108L305.564 155.1L306.929 153.612L308.293 151.999H310.03L313.007 150.636L315.116 151.379H318.217L320.264 149.332L322.683 149.519L323.799 151.132H326.404L327.645 152.372L329.878 151.751H332.979L335.026 149.705L337.445 148.402L340.669 147.161H343.647L345.384 149.891V152.868L342.779 155.225L340.422 157.458L337.321 157.706L333.599 159.442L330.249 158.202L328.637 159.815L324.791 159.691H319.83L317.969 161.676H314.124L311.271 163.288L312.139 165.273L310.153 166.017L307.797 165.769H305.689L305.44 167.134L303.208 166.513V168.746L300.974 170.358L299.114 171.723V169.615L297.625 170.979L297.997 173.46H296.509L295.454 172.406V173.584V175.445L294.369 174.359L292.974 175.754L291.795 176.934H290.181L288.941 178.546L287.329 181.275H284.724L282.615 183.012V185.369L280.506 186.237L279.761 188.718L278.025 190.454V193.556L277.157 195.789L278.273 199.013L277.28 202.239L278.645 204.348L279.265 206.581L278.521 207.326L276.413 208.318V206.705L274.428 205.589Z" fill="#23262F"/>
<path d="M384.716 103.44L383.691 103.645L383.025 104.311L384.05 105.337L385.434 104.876L386.254 104.055L384.716 103.44Z" fill="#23262F"/>
<path d="M408.193 101.39L407.27 102.313L407.988 103.03L408.757 103.799L410.346 102.313V101.287L408.193 101.39Z" fill="#23262F"/>
<path d="M418.034 100.057L417.727 102.108L415.881 102.928L413.113 104.773V107.336L414.241 108.464L412.755 109.95L411.781 111.847L413.113 113.692L413.626 115.537L415.984 117.588L418.137 115.537H419.572L421.725 114.307L424.288 113.487L423.57 111.027V107.951L425.108 106.618L423.827 105.337L421.212 102.723L420.29 100.672L418.034 100.057Z" fill="#23262F"/>
<path d="M411.986 117.075L410.243 116.87L410.551 119.126V120.561L412.806 121.176L413.729 122.099L415.113 120.714L415.882 118.716L414.549 117.69L411.986 117.075Z" fill="#23262F"/>
<path d="M384.613 169.565L383.948 170.23L384.819 171L386.254 170.59L384.613 169.565Z" fill="#23262F"/>
<path d="M353.448 83.6544L352.423 83.9619L353.243 85.0896V86.1148H354.678V84.1669L353.448 83.6544Z" fill="#23262F"/>
<path d="M353.14 92.3684L352.423 93.4961L349.757 94.0087L348.015 94.9313L349.347 95.5464L348.732 96.9817L349.86 97.2892H352.115L353.91 95.4948L355.242 94.162L354.781 92.1633L353.14 92.3684Z" fill="#23262F"/>
<path d="M344.631 90.523L344.068 91.0865L345.144 92.1633L347.092 91.4457V89.8054H345.964L344.631 90.523Z" fill="#23262F"/>
<path d="M343.145 93.752L341.658 92.0609L340.531 93.1886L339.711 94.8288V96.8792L341.453 97.1868L341.863 98.417L344.016 97.9044L345.401 96.52L346.426 95.4948L346.989 93.8037H345.452L343.145 93.752Z" fill="#23262F"/>
<path d="M337.045 100.877L336.379 101.543V102.825H337.763L338.275 101.185L337.045 100.877Z" fill="#23262F"/>
<path d="M334.175 95.6489L333.457 94.9313H331.202V96.4691L329.971 97.6993L330.689 98.4169L333.149 97.9043L334.072 98.827L336.225 98.3144L336.84 96.8791L338.378 97.3917L337.558 95.5464L336.174 94.162L334.175 95.6489Z" fill="#23262F"/>
<path d="M345.554 78.5284L344.939 79.7587L346.016 80.8347L347.041 79.8095L345.554 78.5284Z" fill="#23262F"/>
<path d="M343.299 81.3989H341.658V83.2443L343.401 84.9871V86.4223L344.939 85.7047L344.016 83.7568L343.299 81.3989Z" fill="#23262F"/>
<path d="M333.047 86.7299H331.612L331.304 87.0374L332.483 88.216L333.047 86.7299Z" fill="#23262F"/>
<path d="M334.277 89.0878L333.304 90.0613L334.277 91.1382L335.405 91.0357L334.277 89.0878Z" fill="#23262F"/>
<path d="M335.2 84.577V85.9097H336.635L336.328 84.3719L335.2 84.577Z" fill="#23262F"/>
<path d="M337.199 87.9084V89.0878H338.378L337.455 88.1651L337.199 87.9084Z" fill="#23262F"/>
<path d="M338.378 90.6256L338.89 91.1382L339.813 90.2155L338.378 90.6256Z" fill="#23262F"/>
<path d="M339.813 85.1921V86.6274L341.043 86.7299V85.1921H339.813Z" fill="#23262F"/>
<path d="M337.968 82.3216L338.685 83.6543L339.352 82.9875L338.685 82.3216H337.968Z" fill="#23262F"/>
<path d="M324.743 90.9331L323.974 91.7016L325.307 93.0343L326.793 93.086V90.6256L325.768 89.2928L324.743 90.9331Z" fill="#23262F"/>
<path d="M328.126 89.2928L328.639 90.7281H329.664V89.4979L328.126 89.2928Z" fill="#23262F"/>
<path d="M322.385 81.0914L321.36 82.1166V83.2443L320.181 84.4228L318.079 82.9367L316.336 83.8594V85.0896L314.184 83.5518L312.543 84.167L313.056 86.6274L314.594 86.1148V87.7551L316.234 88.1652L317.721 86.6782L319.822 85.8072L321.565 86.3198H324.128L325.973 84.4745L324.23 82.7317L325.41 81.5523L323.41 80.3738L322.385 81.0914Z" fill="#23262F"/>
<path d="M316.542 78.5284H314.286L312.953 77.1957L312.031 79.041L313.21 80.2196L313.671 81.604L316.337 80.6813L317.259 81.604L319.002 80.8863L319.72 81.604V80.0662L318.541 78.8868H317.464L316.542 78.5284Z" fill="#23262F"/>
<path d="M318.541 89.3436H317.669L317.977 90.6255L319.822 90.728L318.541 89.3436Z" fill="#23262F"/>
<path d="M318.899 92.0609L317.977 92.9835L318.694 93.7011L320.437 94.1112L319.31 92.9835L318.899 92.0609Z" fill="#23262F"/>
<path d="M326.383 78.836V80.1687H327.408L328.434 79.1436L326.383 78.836Z" fill="#23262F"/>
<path d="M686.598 55.7694L687.691 51.8056L691.86 47.773L696.507 43.1252L698.627 41.0068L702.727 39.2295L705.665 37.5212L708.399 34.7876L711.202 31.9852L714.619 30.618L717.08 27.0643L721.727 25.6971L724.187 23.0997L727.195 21.7326L729.108 20.6393L731.295 22.8266L734.439 21.8695L737.242 23.988L739.087 22.1426L742.367 20.3654V18.7251L739.087 19.4083L735.259 19.1352L732.799 18.452L733.619 15.9915L736.216 14.2143L734.029 13.6673V12.437L735.533 12.5748L735.806 10.1144L737.173 8.20098L739.087 6.28759L742.367 5.05737H743.325L745.785 1.63982C745.785 1.63982 748.108 0.956644 748.929 0.136499C749.749 -0.683646 748.929 2.45997 748.929 2.45997L750.706 3.9633L752.072 5.33048L750.569 8.47409C750.569 8.47409 752.619 8.47409 753.439 7.65395C754.26 6.8338 753.439 9.29424 753.439 9.29424V12.1647L750.296 14.2151L752.756 14.6252L754.26 13.1219L757.472 14.3521V12.9168L760.001 15.4453L761.778 18.1797L763.281 17.7696L764.784 15.8562V17.6335L765.742 19.8208H762.871V20.9141L765.195 21.5972L763.964 25.1509L760.821 25.424L757.95 28.5676L756.447 31.8482L753.576 32.8053L751.526 31.9852H748.929L746.605 35.4027L747.63 37.4531V40.9387L745.375 43.1941L743.598 41.8269L741.82 43.1941H739.224L737.72 41.9639L736.353 41.1438L736.148 42.442L737.173 43.4672L735.943 44.0143L735.123 44.8344L737.515 45.2445V47.0898L739.36 48.9351L742.367 48.115H744.418L744.554 50.7124L745.784 49.4822L747.903 51.6014L750.159 53.8568L751.252 57.8206L751.799 60.9642L749.612 64.5179H747.561L744.691 65.7481L743.735 67.9346L746.058 66.9775H747.561L745.375 69.5757L746.741 70.9421L748.519 70.2589V67.6615L750.159 66.4313L753.097 66.3632L754.807 64.6549L755.627 63.2877L757.677 63.4246L759.317 63.1515L762.324 63.0146V64.928H764.784L765.468 63.6297H767.86L769.295 62.1944L771.073 61.9213L772.576 63.1515L774.763 61.5112L775.788 63.9036L777.771 65.8859V68.7564L775.036 69.8497L773.26 73.6756H770.389L769.569 74.9058L772.781 77.0243L771.756 78.0495L774.08 81.604L775.036 85.9778V90.8987L775.856 94.7263L777.224 98.0069L777.908 102.381L779.274 106.618L781.871 108.942V112.906L783.239 118.374L785.562 120.971L787.065 122.474L784.742 124.525L782.281 123.294L778.864 124.388L777.087 128.488L774.217 132.589L775.72 134.093L774.627 137.921V139.971L776.951 143.525V145.712L774.353 144.482L772.44 142.568L770.799 142.705L772.303 146.669V149.266L774.831 150.428L772.303 152.957H770.662V156.51L769.159 158.014L771.209 161.431L772.85 163.071L774.763 164.985L777.361 167.582L777.907 171.41L778.317 174.417L782.076 176.399L784.332 178.654H788.159L787.133 176.331V175.169L788.433 173.87L789.39 171.82L792.943 175.374L793.627 178.517L797.18 180.978L800.7 181.763L802.101 180.363H804.357L807.022 183.028L805.929 185.625L803.195 186.446L804.015 189.726L806.886 194.51L809.414 195.125L811.397 197.107L816.044 196.56L818.778 198.748L819.734 201.208L818.094 202.301L815.77 203.805L814.403 206.812L815.36 212.28L818.094 216.518L820.486 217.406L821.648 218.568L825.612 219.525V221.166L822.605 221.576V224.036L821.511 226.497L822.879 231.417L825.201 232.375L828.756 235.928L831.353 238.389L831.9 242.762L833.267 248.503L833.951 252.194V254.928L832.446 252.877H828.483L825.954 251.579L823.972 249.597H821.238L818.778 247.136L813.993 244.949L809.482 243.036L804.288 240.302L802.785 238.252L800.325 236.611L797.59 236.064L791.713 234.287L787.885 232.237L784.195 229.776L782.418 226.496L778.454 222.532L775.72 219.661L775.719 216.791L773.806 214.878L773.396 211.734L771.073 208.453L768.543 207.906V206.744L769.705 205.582L770.662 203.532L769.364 201.276L770.594 200.046L771.62 199.021L770.252 194.92L769.569 190.546L767.929 185.488L765.331 182.071L764.238 177.56L763.008 173.322L761.641 169.905L760.001 164.847L758.36 163.48L758.223 160.746L759.18 157.466V155.552V153.229L757.54 151.589L755.763 148.171H753.986L752.277 147.556L750.706 145.984L748.792 143.523L745.921 141.746V138.602L748.519 136.143L747.63 135.254L745.511 137.372L742.504 139.012V141.883L741.684 144.07L743.324 145.574L745.716 147.966L747.971 150.221H750.706L750.432 151.999L749.202 151.862L747.903 153.707L749.612 155.415V159.789L750.979 163.07L751.252 168.264L750.296 171.41L749.202 168.676L746.741 167.446L746.742 170.864L744.692 168.813L743.325 167.446L742.23 165.123L738.404 161.569L739.497 164.576L738.404 167.857H734.713V170.044L733.483 174.555L731.979 176.332L732.116 182.346L734.576 183.987L734.166 187.814L736.626 191.642V195.743L737.378 201.142L739.634 203.397V205.858L741.547 207.771L743.325 207.498L744.896 206.063L746.058 204.9H748.108L747.971 207.498L745.785 208.181V211.872L741.684 212.555L742.641 217.339L742.23 219.389L739.634 220.482V223.352L738.677 225.949C738.677 225.949 735.464 226.702 736.079 226.086C736.695 225.471 734.849 224.856 734.849 224.856V223.079L735.396 221.302L737.652 220.55L736.626 219.524L734.166 220.482L731.569 220.892V222.122L727.742 223.899L725.828 226.223L723.641 226.77L721.864 228.547L721.181 230.597L721.863 233.195L723.367 234.698L721.591 236.611L718.72 235.518L719.608 238.457L717.49 240.575L715.576 242.352H713.935L712.295 243.856L713.389 245.633L714.209 246.453L711.885 247.956H708.742L705.666 251.032L703.684 253.014L701.496 256.705L699.173 259.028L696.849 263.676L696.439 268.187L698.627 272.561L696.576 274.611L695.893 278.985L697.122 282.129L699.037 284.042L697.396 286.776V290.466V295.387L696.576 298.805V303.452L697.943 304.956V308.236V311.927L696.713 316.575V320.402L694.663 323.82V327.237L693.569 330.244L694.799 333.012H696.884L698.49 331.406H700.744L702.522 329.628L704.504 327.647L705.871 329.014L707.511 329.834V331.611L708.81 334.003L710.451 335.643L711.886 334.208V332.021L709.972 331.201V329.151L711.476 327.511V328.877L713.116 330.107L713.936 329.834L714.756 330.654V333.115V334.892L717.49 333.799V332.432L718.993 330.382L719.95 329.562L721.454 330.655L721.796 328.4L720.497 327.101L719.267 324.777L717.763 322.043L720.224 320.677L721.728 319.173L724.734 318.49H728.289L731.227 318.832L732.526 320.13C732.526 320.13 735.67 319.583 736.353 319.583C737.036 319.583 738.95 318.762 738.95 318.762L740.659 320.471L739.36 321.77L738.404 322.727L737.584 324.231H739.907H742.367L742.914 326.007L744.965 328.058L747.494 327.716L748.792 329.015L750.159 331.612L750.569 336.806L752.346 342.274L755.148 346.306L758.633 349.791L760.001 351.159L760.684 353.482L763.418 356.216L765.331 359.497L766.016 361.411L768.544 365.307L770.662 367.425V373.166L769.842 378.086L771.346 383.007L771.209 388.064L772.713 392.029L773.806 396.404L774.626 400.366L775.446 405.697V410.892L774.626 413.627V418.957V425.519L773.806 430.44L774.626 435.497L774.353 442.058V445.202L771.62 449.713L769.842 453.54L767.792 457.368H766.015L762.598 458.734L759.727 460.374L757.745 459.554V457.709L756.72 456.683L755.694 459.008V461.535L754.533 460.374L752.756 458.598V459.964L752.209 463.381L752.756 465.705L752.004 468.37L750.842 469.532V470.9V473.086L748.245 472.95L747.151 471.856L748.108 468.712L749.749 465.431V462.698L748.313 459.485L745.375 456.547L743.871 455.043L742.641 451.899L740.044 449.302L737.584 448.482L737.515 445.816L739.224 444.107L740.727 442.605V439.87L742.641 437.956L744.828 436.864L747.084 437.615L749.066 435.634L750.296 433.173L748.108 429.755L749.202 426.884L747.835 423.878L747.561 420.733L745.648 418.137L746.195 415.95L744.691 413.352L744.008 410.345L741.274 407.475L743.325 405.424V402.416L741.616 400.708L739.634 398.725L739.087 396.949H736.763L733.483 398.725L732.663 401.46L730.475 405.014L728.015 408.157L729.109 411.575L726.238 413.898L723.368 415.538L720.908 416.358L720.224 418.819H717.627L715.03 417.316L713.116 416.632V413.488L710.929 411.575L709.152 409.797L706.213 409.046L704.641 410.617L701.497 409.797L698.9 409.115L694.936 409.661H691.245L689.742 411.165L685.641 412.668L681.541 411.848L679.832 408.5L677.85 406.517C677.85 406.517 675.526 405.15 675.526 404.603C675.526 404.055 672.929 402.006 672.929 402.006L669.648 401.46L668.281 398.179L665.137 395.719L662.95 393.532L659.943 392.712L658.85 389.842L656.115 388.611L654.475 386.971L649.008 386.423H646.137L642.857 388.201L638.756 387.517L635.612 388.611H632.195L627.546 392.028L625.36 394.215L621.054 396.744L618.936 398.863L617.432 403.374L616.338 406.107L617.842 408.021L619.961 406.312L621.669 408.021L623.583 409.935L624.677 414.308L623.583 416.632L622.763 422.51V426.2L621.259 430.029L623.309 433.992L624.54 435.222V439.05L621.669 439.87L619.824 444.176L617.158 446.842L612.648 448.482L607.591 448.072L603.9 447.388L601.166 449.028L597.339 451.215L594.468 449.712L591.871 448.754L588.454 450.258L585.584 453.129L583.533 455.179L582.371 459.211L579.979 461.604L576.835 463.791L572.461 465.841L569.112 469.191L567.403 470.898H563.03L559.065 472.128H553.461L549.36 472.676L545.67 471.446L544.576 469.396L542.662 467.481H537.468L532.684 466.797L530.77 465.567L524.483 466.456H520.586L517.375 469.668L513.821 470.488L510.403 471.446L505.482 471.036L502.135 469.601L500.015 467.481L498.034 463.312L495.505 460.784L491.95 459.418H488.533L484.638 460.441L481.972 457.777H476.641L473.497 455.453L471.925 457.025L469.806 459.144L468.098 462.629L466.252 464.475L465.705 468.029L467.415 470.08V473.154L469.806 475.547V478.827L466.594 480.947L463.519 484.022H460.922H456.958L453.267 483.064L449.439 483.748L446.706 482.928L442.741 481.56L440.555 479.374L437.957 476.777L434.814 475.821L431.123 477.323L428.799 474.999L425.86 473.701L423.468 476.093H420.461L419.504 478.963H415.951L411.44 481.834L408.705 484.568H405.972L405.425 487.439L402.213 488.19L399.958 490.445L395.857 490.309L392.439 492.222L390.662 494L386.698 493.316L385.468 491.266L383.965 488.531L383.213 485.73L381.094 487.849L377.541 489.215L374.26 488.121L370.569 487.165V483.884L367.699 482.108L366.606 479.647L364.282 478.143L363.735 474.863L361.822 473.086L359.259 471.959L357.584 470.285H354.098L352.39 471.992L348.973 472.54L347.605 471.172L344.598 471.718L342.958 470.078L341.454 468.576V466.525L339.951 464.749L337.763 465.431L336.259 468.576L333.252 469.122L331.475 465.569L330.518 462.424L329.834 458.87L327.511 454.769V451.489L325.324 449.438V444.927L323.683 439.46L321.36 437.136L319.857 435.634L318.284 432.284L316.576 430.575L314.253 429.619V427.158H316.166L317.806 424.972L317.123 423.057H314.663L312.612 425.108L309.742 425.244L307.623 425.313L305.368 427.568L301.54 428.662L298.26 430.439L296.756 428.252L293.885 429.619H291.562L292.382 425.928L295.662 424.424V422.511H292.929L290.468 421.007L288.965 422.511L286.231 421.691L287.12 418.478L285.137 416.496L282.404 418.137L279.396 417.316L278.644 414.925L280.353 413.216V410.619L281.037 408.705L279.943 405.288L277.893 404.33H275.433L274.202 401.87H270.785L268.051 400.229L265.044 399.956L263.404 402.28H259.986L256.979 403.1L254.518 401.734L251.511 402.28H247.82L244.266 400.435H242.831L241.259 402.006L238.525 402.554L235.928 401.186H233.604L230.461 400.229L225.813 400.366L222.395 399.683L219.935 400.366L217.748 398.453L214.604 396.813H211.734L210.776 399.819L211.734 401.87L209.82 403.784L211.324 404.74L212.827 406.244L214.672 408.09L212.964 409.797H211.05L208.727 407.475L205.173 407.611L202.85 408.567L203.807 411.985L202.85 414.446L200.526 415.128L197.793 414.446L196.7 417.316L197.588 419.298L199.501 421.212L200.799 422.51L201.346 424.834L203.26 426.748L201.346 429.345L199.569 431.121H196.562L193.486 431.326L191.914 429.755L190.821 427.533H189.42L187.95 429.004H185.558L182.892 426.338L182.38 424.8L180.364 422.784V419.298L178.655 417.589H175.511L172.914 418.547L171.957 416.496L169.359 414.446L167.036 413.216L163.892 414.72L161.022 415.13L158.698 414.446L157.058 411.301L154.734 409.251L153.094 411.985H151.317V409.799L152.957 408.159L151.864 405.834L150.497 402.28L149.95 398.589L147.899 396.129L144.619 394.899L143.662 392.576L141.885 390.798L138.605 391.346H136.691V388.747L135.734 386.015L132.385 385.398L130.677 387.107L127.533 388.201L124.8 386.697H121.929L120.562 388.747H117.692H114.548L113.863 390.252L112.086 392.028L111.813 394.625L108.464 394.011L106.482 392.028V389.294L107.371 386.628L105.936 385.193H103.611L102.654 387.381L100.877 388.679H98.2116L96.0931 390.798L94.3159 392.574V395.035L91.9924 395.993L89.532 395.855L87.7547 397.633L85.5674 399.135L86.4556 401.801L88.4379 403.784L87.6177 407.337L85.8405 409.115L87.6177 410.207L90.2151 412.668L91.8554 414.308L91.1722 417.863L91.9243 422.51V426.269L90.4891 427.704L89.1219 426.2L87.0715 425.928L87.3446 428.388L88.5068 430.78L90.2151 432.489L88.848 433.855L86.5245 434.129H84.6111H83.1078H81.8775C81.8775 434.129 80.2373 434.334 78.939 434.334C77.6407 434.334 77.9138 433.309 77.9138 433.309L75.8634 432.761L74.9071 431.805L72.4467 431.395V433.309L70.5333 434.129L68.2098 436.862H65.6124L62.7419 437.682L61.0672 437.239L59.6664 438.64V440.896L61.1016 442.331L61.9218 444.927L61.2386 447.524L60.6235 449.917L59.0513 451.489V452.445L57.6841 453.675L54.6766 458.596V462.424L55.4968 467.071L54.9497 470.626L55.2228 474.999L51.9422 476.503L49.7549 475.547L46.6113 476.639L43.6038 475.957L43.1938 473.359L41.6904 468.848L41.4173 465.567L39.23 464.065V462.287L38.1367 459.416L36.2233 456.956L37.4536 454.905L38.2737 452.583L36.2233 450.395L35.5402 447.934L33.2167 447.662L32.7386 446.227L31.0285 444.517L28.0211 444.107L26.1077 442.193L25.5606 437.82L23.6472 436.042L24.1943 433.309L21.8708 431.395L20.6406 428.252L18.5902 427.294L15.5828 425.244L14.6256 421.963L12.5753 418.821L11.8921 416.086L10.3888 415.812L9.29552 414.446L7.92834 412.532L6.15109 412.806L5.05783 409.525L5.46791 403.238L4.92087 398.589L3.82762 396.267L2.46044 394.216L2.73354 390.115L1.09325 388.611L0 386.425L0.820145 383.964L0.136964 381.23L1.64029 379.726L3.28058 379.454L5.46791 382.186L7.51827 382.87L8.47538 380.82L10.7989 379.864L13.9425 379.726H15.5828L17.6331 380.41L18.0432 376.993L16.9499 374.943L17.497 373.165L19.1373 373.439L20.6406 374.533L22.2809 376.035L23.5111 374.805L25.4245 375.625L28.5681 376.035L30.8916 376.993L31.4386 374.533L29.7983 373.302L27.4749 372.755L25.9715 371.252L24.3312 370.704L26.3816 368.518L29.3883 367.151L31.9857 368.244L34.3091 367.288L36.4965 369.612L39.777 373.165L42.7845 370.158L44.8349 368.928L44.2878 365.92L46.2012 364.007L48.1146 364.281L47.9777 362.093L53.0355 361.41L53.9926 359.086L55.0859 357.72L52.7624 356.626V353.755L50.5751 351.295L49.7549 348.15L47.7046 346.92L45.5172 344.46L46.3374 341.589L45.5172 337.351L42.9207 335.439L39.9132 333.115L38.9561 329.971L36.9057 328.331L36.2225 326.417L37.9998 324.367L39.367 321.359V318.489L37.8636 315.755L36.3603 313.432L37.7275 312.339L38.5476 310.288H40.1879L41.4181 309.195L42.3753 305.504L42.6484 303.317L41.5543 300.584L40.0501 299.079L37.9998 298.806L36.4965 297.166L35.2662 295.389L33.4209 296.96L31.9857 295.525L30.7554 293.474L31.9857 291.287L34.5831 288.69L36.3603 286.639L37.0435 284.179L39.0939 284.042L40.5972 285.682L41.4173 287.733L44.1509 288.691L46.7483 287.87L47.4314 285.137L48.2516 282.129L46.2012 280.079L47.5684 279.122L47.4314 276.798L48.2516 273.518L49.7549 269.964L50.8482 266.957L53.5817 266.137L54.5388 264.086L57.1362 261.899V257.251L54.8128 255.065L52.2154 254.381L53.0355 252.331L53.7187 250.144L51.8053 248.23L50.5751 245.497L50.9851 243.583L53.5825 240.986L55.0859 238.252L54.4027 235.792L56.59 235.245L59.8706 233.195V230.324L61.2378 228.684L64.6545 228.547L66.1578 226.77L66.2948 224.719L69.1653 223.626L71.4888 220.482L74.6324 220.619L77.3659 218.979L81.0566 219.799L81.6036 217.749L82.8338 216.519L85.1573 217.612L87.0707 219.662L90.079 220.619L91.1722 223.079L92.2655 225.813L93.9058 224.172L93.6327 220.208L91.1722 218.021V213.373L93.3596 212.827L94.0427 212.144L91.0353 210.914L89.258 208.863L119.877 208.726L125.618 206.676V203.122L126.575 194.101H130.402L133.683 191.503V187.95L136.143 186.993V182.345L138.331 182.208L143.114 178.38L145.438 179.474L150.496 170.042L150.838 167.513L155.007 163.345H161.978L164.165 159.517V152.136L168.539 149.948L174.28 147.078L178.244 148.581H180.568L182.481 150.495L184.829 148.859L184.258 151.725L186.581 151.452L189.862 151.589V153.776L190.545 156.236L189.042 155.279L187.47 153.707L186.034 155.142L186.718 157.74V160.337L189.041 161.567L190.818 163.345V166.215L192.801 167.172V170.385L195.056 172.64L196.149 176.468V180.431L195.466 183.849L196.286 185.762L196.354 189.931L198.747 192.324L198.61 195.331L198.063 200.252L195.67 204.421L192.048 208.043H188.22L183.982 208.863L180.292 207.496L176.259 205.241L173.734 202.712V199.021L171.136 196.423L169.906 193.553L168.949 190.819L167.173 187.813L166.216 182.755L164.302 181.935L164.917 178.859L166.489 177.287L164.576 175.374L163.688 177.766L162.39 179.064L162.937 182.072L163.005 185.557L161.501 187.061L163.484 189.043L162.937 192.05L161.023 196.288L157.675 197.313L155.009 199.979L153.984 204.832L151.455 207.36L152.276 210.231L153.506 213.784L151.523 217.27L154.326 220.072L157.331 223.079L160.748 220.619L161.432 217.202L159.654 215.425L159.927 212.417V210.094L162.251 207.633H164.574L165.395 213.784L166.147 217.817L168.539 220.209L170.042 223.353L173.938 224.515L175.1 223.353L174.143 221.029L176.467 219.116L176.603 214.332L180.841 215.015L184.805 213.512L188.086 215.289L191.776 214.127H194.305L195.878 215.698L198.201 219.251L196.288 221.165V224.172L197.996 222.054L200.389 219.661L203.669 218.978L206.403 215.014V211.597L207.496 209.273L211.05 207.496V205.309L214.467 203.259V199.841L213.92 196.56H216.244L216.996 198.269L220.071 201.344L222.395 204.898V209.682L221.574 212.142L220.344 213.373L218.294 211.322L215.423 210.639L211.05 212.142V215.696L212.143 218.977V221.71L215.286 222.53L218.294 223.898L221.711 222.257V219.797L225.265 218.977L228.683 220.617L228.136 218.43L233.467 219.387L236.337 218.84L241.531 219.523H244.539L246.042 222.256H247.409V219.796L251.783 218.429H254.108L255.065 221.982H252.468L251.648 224.443L249.597 225.126L252.741 227.997H254.928L259.029 226.219L262.925 226.971L267.162 231.209L268.598 229.774H271.468L275.091 228.612L276.526 230.047L276.116 231.96L273.928 233.464V235.787L276.526 237.974L276.731 235.446L277.893 234.284L280.627 234.967V232.78L283.224 232.37L283.771 229.089L283.361 225.125L285.821 223.895L287.94 223.28L290.468 225.808L291.562 224.715L294.364 228.201L297.577 231.413L300.174 234.011L301.882 237.496L305.095 240.709L307.282 244.126L309.606 247.27V250.004L311.518 253.014L314.252 251.374V248.503L317.395 245.633L315.208 244.95L313.705 241.396L314.252 237.568L311.654 235.791L310.219 232.853L311.517 231.554L314.251 230.187V228L314.934 224.719L316.164 223.079V221.029L314.387 220.482L315.344 217.748L316.847 215.835L319.581 214.878L322.52 213.442L323.545 212.417L325.868 210.094L327.646 206.13L329.013 202.849L330.516 199.569L333.113 198.202L334.754 200.525H338.034L339.675 202.165H342.545L343.775 206.813L342.408 208.18L341.793 213.169L337.897 217.065L336.804 220.619L339.128 222.669L338.307 227.317L337.624 231.007L334.891 235.108L333.934 240.986L332.43 246.18L331.337 248.777L332.362 252.4L334.755 254.792L334.344 256.98L331.337 259.303L330.79 264.361L327.782 265.181L324.229 268.735L322.178 271.742L320.265 272.836L316.847 272.152L314.797 273.52L312.542 272.084L311.106 270.649L309.056 269.966V272.563L311.106 275.707L313.157 276.664L315.89 278.577L318.214 278.44L319.854 280.764H322.315C322.315 280.764 323.34 278.919 322.793 278.372C322.246 277.824 324.228 276.936 324.228 276.936H326.005L326.825 276.116L330.243 275.159L332.976 273.656V270.785L334.207 269.555L336.325 267.437L338.033 265.728L338.854 262.448L338.17 259.577L337.897 256.98L339.743 255.134L341.588 253.289H344.458L347.602 252.879L348.49 255.544L349.789 256.843L351.429 261.08L349.245 263.266L349.382 266.547V268.597L352.115 271.331L355.259 272.014V270.1L352.183 269.212L351.021 268.05V266.41L350.748 263.949L352.935 263.266L353.756 261.489L352.935 258.891L353.893 256.704L352.525 253.971L350.748 252.33L349.655 251.237L346.306 250.075L344.393 248.161L342.821 249.734L340.77 250.691L339.677 249.188H337.217L336.807 246.59L338.447 244.95L338.037 240.576L339.95 237.568L341.18 234.015L343.914 231.281L342.957 228.274L342.137 225.676L342.479 222.875L340.496 220.892L342.684 218.705L346.101 215.288H348.972L350.612 212.69L351.705 209.82L350.748 207.496L351.705 205.446H353.893L353.209 208.316V212.28L352.662 215.834L350.202 218.294V221.712V224.172L353.072 226.36L354.713 227.727L356.831 226.428L358.95 228.547L361.273 230.734V229.094L360.385 226.975L358.813 225.403L356.352 224.173V223.08L354.302 221.029L353.346 218.021L356.216 216.108L357.583 217.475L359.771 219.662L361.411 218.159L360.864 216.382L360.659 214.809L362.231 213.237L364.965 213.784L367.22 213.442L369.065 215.288L372.619 217.201L371.662 219.935L372.55 220.823L374.942 223.215H378.633L379.18 221.028L377.677 218.977L377.814 217.064L375.216 216.107L373.303 212.963L372.209 211.87L373.029 208.589L374.259 205.856L373.166 204.763L372.483 201.345L375.216 198.885H381.641L384.921 200.115V199.295H390.252L393.806 197.791H396.402L397.77 196.424L396.402 194.374L394.762 193.827L393.395 192.46C393.395 192.46 393.942 191.913 394.967 190.887C395.992 189.862 395.992 191.913 395.992 191.913L397.633 191.503L396.539 190.272L397.291 188.564L396.129 187.402L397.496 185.488L399.41 183.985L397.496 183.848L397.359 181.798L401.187 181.935L402.69 178.791L406.449 177.356L407.884 175.921L413.01 175.169L414.309 173.87L417.999 172.777L418.819 171.82L416.359 171L417.726 169.633L421.28 168.812L424.287 168.402L424.97 166.899L427.431 166.489L426.133 168.949V170.932L427.841 169.223L432.079 169.359L432.49 167.172L435.223 166.625L437.957 167.172L436.726 165.532L435.086 164.302L434.266 162.798H437.273L440.417 161.841H441.374L441.101 159.518L440.007 158.698V155.417L440.691 153.23L442.741 148.172L445.202 146.395L447.388 144.071L450.123 145.711L452.173 145.438L452.788 148.241L450.669 150.359L448.892 152.683L453.232 152.922L454.086 152.068H456.752L458.734 154.05L456.957 155.827C456.957 155.827 456.82 157.604 457.64 157.604C458.46 157.604 460.648 158.561 460.648 158.561L461.331 156.238L460.101 155.008L463.108 153.367H465.842L468.644 151.385L470.216 152.957L472.335 151.932L473.907 153.504L475.273 156.238L476.914 157.605L477.871 156.512L479.306 157.947L481.151 159.792L480.878 162.663L478.144 162.116L479.238 163.209L481.971 164.713L483.68 167.651L482.108 169.223V171.956L480.741 173.869L479.443 176.535L477.871 178.107L475.137 181.388V182.755L474.317 186.583L472.267 188.633L471.446 192.871L468.166 193.691L467.141 196.766L464.885 199.022L464.338 202.575L463.655 205.036L466.116 203.943L465.568 201.209L468.029 199.706C468.029 199.706 470.216 199.022 471.446 199.022C472.677 199.022 473.087 196.562 473.087 196.562L475.41 194.649L477.598 193.829L478.896 191.3L477.871 190.275L476.23 190.138L476.367 189.043L476.23 186.856L478.281 186.719H479.921L482.245 187.266L484.979 188.359L485.525 186.719L487.234 184.326L488.669 185.762V188.495L490.31 190.819H492.223L490.31 189.043L491.608 187.745L494.137 185.216L497.554 183.439L502.748 182.482L506.849 181.252L507.875 182.824L506.918 183.781L509.173 186.036H513.41L513.547 184.943L513.957 183.44L515.597 186.037L518.468 184.944L521.338 182.483C521.338 182.483 524.346 181.936 525.029 181.936C525.712 181.936 525.029 179.476 525.029 179.476L524.619 176.742L522.569 173.599L523.116 170.455L523.526 168.815L525.166 170.455L526.874 169.157L528.31 170.592L530.497 172.095L531.043 170.455L532.137 170.18L533.23 171.41L534.324 170.59C534.324 170.59 534.188 168.061 535.213 168.061C536.238 168.061 536.511 166.763 536.511 166.763L539.518 169.086L540.475 168.129L543.755 169.223L542.662 172.571H544.234L545.806 174.143V176.741L548.403 175.1L549.77 176.468V179.475L547.993 180.022L546.9 181.115L548.813 183.028C548.813 183.028 550.317 182.345 550.317 181.661C550.317 180.977 551.547 182.891 551.547 182.891V185.078L554.349 185.009L557.015 187.675L559.065 189.042L561.936 189.589L563.166 188.359L566.309 189.999L566.583 187.403L565.216 182.892L564.396 180.842V178.928L562.619 177.151V174.69L566.036 175.1L567.95 177.014L570.957 176.194H574.375L573.691 172.64L575.605 169.086L579.159 168.266L581.756 168.129L584.763 168.949V166.899L581.551 165.464L582.712 164.302L584.216 162.661L586.813 162.798L588.863 160.748L587.907 160.201L585.857 158.151L583.532 156.92V153.913L582.576 153.093L581.209 156.646L579.569 155.553V152.683L582.576 149.949L582.166 148.036L579.296 146.258L581.072 144.481H583.669L587.497 142.568L588.59 139.424L593.648 137.511L597.612 135.734C597.612 135.734 598.159 136.281 598.159 137.101C598.159 137.921 595.561 138.878 595.561 138.878L594.604 142.569L596.929 141.475L598.979 139.424L601.576 140.244L600.892 145.575L603.216 143.388V140.791L602.396 136.417L602.943 134.503L604.173 131.086L607.044 129.719L611.144 127.941L613.605 129.719C613.605 129.719 612.443 131.291 611.554 132.179C610.666 133.067 612.511 133.683 612.511 133.683H615.518L617.432 131.496C617.432 131.496 619.619 133.819 620.029 134.229C620.439 134.639 619.619 131.086 619.619 131.086L623.309 129.035L625.907 130.403L628.777 130.266L631.375 127.669L634.108 124.252V120.288L637.526 115.23L640.396 112.359L642.993 109.216L647.504 108.533L651.263 108.328L653.109 110.173L656.935 114.001L660.353 112.497L662.813 110.515H665.479L664.181 109.216V107.302L666.777 104.705V100.194L668.007 97.8707H670.058L671.835 96.0935V93.3599L675.253 90.8995L676.073 87.6189L674.706 86.2517L675.253 84.6114L673.339 81.8779L674.842 79.1435L676.278 77.7083L678.875 80.3057L676.893 82.288L678.943 84.3383H682.087L684.274 83.5182L687.282 82.151L690.015 81.4678L690.698 79.2805L689.878 77.0932L688.375 76.8201L683.727 74.7697L680.31 75.3167L679.49 73.4033H676.756V71.9L677.44 69.3026L679.9 68.0724L680.173 65.2019L682.361 63.9717H684.274L683.454 61.6482L684.274 59.1878L686.598 55.7694Z" fill="#23262F"/>
<path d="M705.784 318.76L704.601 320.061V321.716V323.49L706.612 322.663L707.677 323.727L708.86 322.545L709.332 320.178L708.031 318.287L705.784 318.76Z" fill="#23262F"/>
<path d="M738.662 306.579L737.715 306.816L737.007 304.805V303.031L740.082 303.858L741.619 304.568L742.447 306.461L744.103 308.117L747.059 308.708L747.769 310.6L751.08 312.729H752.854L754.273 314.739L755.455 317.933L757.288 319.765L760.777 323.373L763.023 323.964L766.099 325.147L769.056 327.749L773.077 329.996L775.678 332.243L779.109 334.017L782.065 335.791L783.958 337.328L787.269 338.629L786.796 340.167L785.614 341.349L783.367 342.058H781.593L782.066 344.542L781.593 346.316V347.735L783.603 350.81C783.603 350.81 785.497 352.938 785.141 353.293C784.785 353.648 785.26 356.96 785.26 356.96L786.798 358.497L789.163 360.863L791.173 362.164H794.248L796.022 363.937H798.032L799.097 366.185L801.699 366.303L803.295 364.707L806.075 366.303L807.731 368.433C807.731 368.433 808.323 369.851 807.731 369.851C807.139 369.851 803.946 368.314 803.946 368.314L802.586 369.673H799.571L798.625 372.099L799.216 374.463L801.109 376.355L802.527 379.431L800.635 380.968L799.098 379.076L797.087 377.065L793.539 373.754V371.506L791.174 369.142L788.928 366.895L787.39 364.885L785.497 361.218L783.132 358.971L780.648 357.552L778.283 356.842L776.271 352.585L771.896 346.554L768.348 343.005L765.392 340.049L762.789 336.501L761.133 333.781L756.639 331.77L753.092 330.233L750.962 329.996L748.124 326.093V324.32L745.049 321.245L743.393 318.17L740.082 317.105L740.91 314.74V312.966L743.63 313.794L744.103 311.428L742.507 309.832V308.945L740.939 307.377L738.662 306.579Z" fill="#23262F"/>
<path d="M838.597 368.313L839.071 370.795L839.307 373.161L840.254 373.516V371.624L840.964 370.086V367.958L838.597 368.313Z" fill="#23262F"/>
<path d="M846.758 369.732V370.795L848.296 371.624V369.849L846.758 369.732Z" fill="#23262F"/>
<path d="M841.909 360.152L843.329 360.743L843.802 358.851L843.092 355.067L844.393 353.767L844.156 351.045L842.145 350.454L841.554 353.53L842.323 354.296L841.673 356.604L841.909 360.152Z" fill="#23262F"/>
<path d="M845.457 344.54L844.866 345.131L845.339 347.143L846.286 345.724L845.457 344.54Z" fill="#23262F"/>
<path d="M846.877 337.325L847.467 334.25L846.641 332.359L847.113 330.348L848.71 328.751L849.123 330.94L848.768 333.187L849.242 335.788L848.414 337.68L846.877 337.325Z" fill="#23262F"/>
<path d="M779.582 158.269V160.871L779.346 163.236L780.765 164.183L781.711 165.365L781.829 167.494L783.722 168.203L783.249 166.075L782.421 164.419L783.249 161.698V158.388L781.001 157.441L779.582 158.269Z" fill="#23262F"/>
<path d="M825.588 170.687L823.933 171.279L824.761 173.053H827.599H830.438L832.212 171.279L829.965 170.569L827.717 171.516L825.588 170.687Z" fill="#23262F"/>
<path d="M833.75 257.85L833.041 259.978L831.917 261.102L833.218 262.403L833.987 263.999L833.75 266.128L833.631 268.848L834.873 270.09L836.234 269.321V266.483L837.475 265.242L836.47 262.817L834.815 261.161L834.932 259.033L833.75 257.85Z" fill="#23262F"/>
<path d="M838.835 276.299V278.073L840.018 278.664L840.846 277.601L838.835 276.299Z" fill="#23262F"/>
<path d="M848.415 310.952V313.554V315.682H850.071L849.598 313.672V312.371V310.834L848.415 310.952Z" fill="#23262F"/>
<path d="M835.644 164.535L834.106 165.6L834.934 166.427L836.057 165.304L837.181 164.18L835.644 164.535Z" fill="#23262F"/>
<path d="M679.125 22.2779L678.039 21.8712L677.09 22.8652L675.01 23.951L673.315 25.6463L673.473 28.5627L672.749 29.2869L673.111 31.6374L674.467 33.6271L675.869 36.8831L678.039 37.335L679.509 35.8653L680.617 33.8535L679.397 32.5421L681.205 29.9192L680.888 27.0709V23.6796L679.125 22.2779Z" fill="#23262F"/>
<path d="M1.12683 209.971L3.25429 210.448L5.07747 209.927L5.77213 208.581L7.42144 208.842L8.96332 210.383L9.02811 212.488L10.287 212.88L10.5478 214.529L12.5014 214.877L12.9353 213.313L11.8724 212.25L12.7836 211.339L13.37 211.925L15.2366 213.487V215.831L14.9758 217.872L16.0609 219.652L17.1467 220.39L17.5371 223.038L16.5825 225.035L12.0241 227.336L5.12094 219.131L1.12683 209.971Z" fill="#23262F"/>
</g>
</svg>
